<mxfile host="65bd71144e">
    <diagram id="iO6UQyrk4me7V_Ma7WtU" name="第 1 页">
        <mxGraphModel dx="1154" dy="423" grid="1" gridSize="10" guides="1" tooltips="1" connect="1" arrows="1" fold="1" page="1" pageScale="1" pageWidth="827" pageHeight="1169" background="none" math="0" shadow="0">
            <root>
                <mxCell id="0"/>
                <mxCell id="1" parent="0"/>
                <mxCell id="3" style="html=1;dashed=1;startArrow=none;" parent="1" source="27" edge="1">
                    <mxGeometry relative="1" as="geometry">
                        <mxPoint x="120" y="560" as="targetPoint"/>
                    </mxGeometry>
                </mxCell>
                <mxCell id="2" value="用户" style="rounded=0;whiteSpace=wrap;html=1;" parent="1" vertex="1">
                    <mxGeometry x="60" y="100" width="120" height="40" as="geometry"/>
                </mxCell>
                <mxCell id="4" value="" style="shape=umlActor;verticalLabelPosition=bottom;verticalAlign=top;html=1;outlineConnect=0;" parent="1" vertex="1">
                    <mxGeometry x="105" y="40" width="30" height="60" as="geometry"/>
                </mxCell>
                <mxCell id="6" style="edgeStyle=none;html=1;dashed=1;startArrow=none;" parent="1" source="29" edge="1">
                    <mxGeometry relative="1" as="geometry">
                        <mxPoint x="280" y="560" as="targetPoint"/>
                        <Array as="points"/>
                    </mxGeometry>
                </mxCell>
                <mxCell id="5" value="系统" style="rounded=0;whiteSpace=wrap;html=1;" parent="1" vertex="1">
                    <mxGeometry x="220" y="100" width="120" height="40" as="geometry"/>
                </mxCell>
                <mxCell id="8" style="edgeStyle=none;html=1;dashed=1;startArrow=none;" parent="1" source="31" edge="1">
                    <mxGeometry relative="1" as="geometry">
                        <mxPoint x="440" y="560" as="targetPoint"/>
                    </mxGeometry>
                </mxCell>
                <mxCell id="7" value="神经网络预测模型" style="rounded=0;whiteSpace=wrap;html=1;" parent="1" vertex="1">
                    <mxGeometry x="380" y="100" width="120" height="40" as="geometry"/>
                </mxCell>
                <mxCell id="10" style="edgeStyle=none;html=1;dashed=1;" parent="1" source="9" edge="1">
                    <mxGeometry relative="1" as="geometry">
                        <mxPoint x="600" y="560" as="targetPoint"/>
                    </mxGeometry>
                </mxCell>
                <mxCell id="9" value="知识图谱" style="rounded=0;whiteSpace=wrap;html=1;" parent="1" vertex="1">
                    <mxGeometry x="540" y="100" width="120" height="40" as="geometry"/>
                </mxCell>
                <mxCell id="11" value="" style="endArrow=classic;html=1;exitX=0.838;exitY=0.094;exitDx=0;exitDy=0;exitPerimeter=0;entryX=0.234;entryY=0.07;entryDx=0;entryDy=0;entryPerimeter=0;" parent="1" source="27" target="29" edge="1">
                    <mxGeometry width="50" height="50" relative="1" as="geometry">
                        <mxPoint x="120" y="180" as="sourcePoint"/>
                        <mxPoint x="260" y="179" as="targetPoint"/>
                    </mxGeometry>
                </mxCell>
                <mxCell id="12" value="发出识别请求，传输图像" style="text;html=1;align=center;verticalAlign=middle;resizable=0;points=[];autosize=1;strokeColor=none;fillColor=none;" parent="1" vertex="1">
                    <mxGeometry x="120" y="150" width="160" height="30" as="geometry"/>
                </mxCell>
                <mxCell id="13" value="" style="endArrow=classic;html=1;entryX=0.206;entryY=0.201;entryDx=0;entryDy=0;entryPerimeter=0;exitX=0.766;exitY=0.169;exitDx=0;exitDy=0;exitPerimeter=0;" parent="1" source="29" target="31" edge="1">
                    <mxGeometry width="50" height="50" relative="1" as="geometry">
                        <mxPoint x="280" y="210" as="sourcePoint"/>
                        <mxPoint x="440" y="210" as="targetPoint"/>
                    </mxGeometry>
                </mxCell>
                <mxCell id="14" value="调用模型接口，识别红外图像" style="text;html=1;align=center;verticalAlign=middle;resizable=0;points=[];autosize=1;strokeColor=none;fillColor=none;" parent="1" vertex="1">
                    <mxGeometry x="280" y="170" width="180" height="30" as="geometry"/>
                </mxCell>
                <mxCell id="15" value="" style="endArrow=classic;html=1;dashed=1;entryX=0.801;entryY=0.367;entryDx=0;entryDy=0;entryPerimeter=0;" parent="1" target="29" edge="1">
                    <mxGeometry width="50" height="50" relative="1" as="geometry">
                        <mxPoint x="430" y="270" as="sourcePoint"/>
                        <mxPoint x="280" y="270" as="targetPoint"/>
                    </mxGeometry>
                </mxCell>
                <mxCell id="16" value="返回识别结果" style="text;html=1;align=center;verticalAlign=middle;resizable=0;points=[];autosize=1;strokeColor=none;fillColor=none;" parent="1" vertex="1">
                    <mxGeometry x="310" y="250" width="100" height="30" as="geometry"/>
                </mxCell>
                <mxCell id="17" value="" style="endArrow=classic;html=1;entryX=0.182;entryY=0.24;entryDx=0;entryDy=0;entryPerimeter=0;exitX=0.777;exitY=0.532;exitDx=0;exitDy=0;exitPerimeter=0;" parent="1" source="29" target="32" edge="1">
                    <mxGeometry width="50" height="50" relative="1" as="geometry">
                        <mxPoint x="280" y="320" as="sourcePoint"/>
                        <mxPoint x="600" y="320" as="targetPoint"/>
                    </mxGeometry>
                </mxCell>
                <mxCell id="18" value="将结果传入知识图谱" style="text;html=1;align=center;verticalAlign=middle;resizable=0;points=[];autosize=1;strokeColor=none;fillColor=none;" parent="1" vertex="1">
                    <mxGeometry x="370" y="295" width="130" height="30" as="geometry"/>
                </mxCell>
                <mxCell id="19" value="" style="endArrow=classic;html=1;dashed=1;entryX=0.777;entryY=0.667;entryDx=0;entryDy=0;entryPerimeter=0;" parent="1" target="29" edge="1">
                    <mxGeometry width="50" height="50" relative="1" as="geometry">
                        <mxPoint x="590" y="360" as="sourcePoint"/>
                        <mxPoint x="280" y="360" as="targetPoint"/>
                    </mxGeometry>
                </mxCell>
                <mxCell id="20" value="知识图谱返回分析结果" style="text;html=1;align=center;verticalAlign=middle;resizable=0;points=[];autosize=1;strokeColor=none;fillColor=none;" parent="1" vertex="1">
                    <mxGeometry x="365" y="340" width="140" height="30" as="geometry"/>
                </mxCell>
                <mxCell id="22" value="" style="endArrow=classic;html=1;edgeStyle=orthogonalEdgeStyle;startArrow=none;entryX=0.754;entryY=0.897;entryDx=0;entryDy=0;entryPerimeter=0;" parent="1" target="29" edge="1">
                    <mxGeometry width="50" height="50" relative="1" as="geometry">
                        <mxPoint x="350" y="410" as="sourcePoint"/>
                        <mxPoint x="280" y="430" as="targetPoint"/>
                        <Array as="points">
                            <mxPoint x="350" y="430"/>
                            <mxPoint x="340" y="430"/>
                        </Array>
                    </mxGeometry>
                </mxCell>
                <mxCell id="24" value="" style="endArrow=none;html=1;edgeStyle=orthogonalEdgeStyle;exitX=0.801;exitY=0.77;exitDx=0;exitDy=0;exitPerimeter=0;" parent="1" source="29" edge="1">
                    <mxGeometry width="50" height="50" relative="1" as="geometry">
                        <mxPoint x="280" y="390" as="sourcePoint"/>
                        <mxPoint x="350" y="410" as="targetPoint"/>
                        <Array as="points">
                            <mxPoint x="320" y="391"/>
                            <mxPoint x="350" y="390"/>
                        </Array>
                    </mxGeometry>
                </mxCell>
                <mxCell id="23" value="融合结果" style="text;html=1;align=center;verticalAlign=middle;resizable=0;points=[];autosize=1;strokeColor=none;fillColor=none;" parent="1" vertex="1">
                    <mxGeometry x="340" y="400" width="70" height="30" as="geometry"/>
                </mxCell>
                <mxCell id="25" value="" style="endArrow=classic;html=1;dashed=1;entryX=0.879;entryY=0.931;entryDx=0;entryDy=0;entryPerimeter=0;exitX=0.129;exitY=0.962;exitDx=0;exitDy=0;exitPerimeter=0;" parent="1" source="29" target="27" edge="1">
                    <mxGeometry width="50" height="50" relative="1" as="geometry">
                        <mxPoint x="270" y="449" as="sourcePoint"/>
                        <mxPoint x="110" y="450" as="targetPoint"/>
                    </mxGeometry>
                </mxCell>
                <mxCell id="26" value="返回预测结果" style="text;html=1;align=center;verticalAlign=middle;resizable=0;points=[];autosize=1;strokeColor=none;fillColor=none;" parent="1" vertex="1">
                    <mxGeometry x="150" y="425" width="100" height="30" as="geometry"/>
                </mxCell>
                <mxCell id="28" value="" style="html=1;dashed=1;endArrow=none;" parent="1" source="2" target="27" edge="1">
                    <mxGeometry relative="1" as="geometry">
                        <mxPoint x="120" y="490" as="targetPoint"/>
                        <mxPoint x="120" y="140" as="sourcePoint"/>
                    </mxGeometry>
                </mxCell>
                <mxCell id="27" value="" style="rounded=1;whiteSpace=wrap;html=1;fillColor=#00D5FF;fontColor=#ffffff;strokeColor=#006EAF;perimeterSpacing=10;glass=0;" parent="1" vertex="1">
                    <mxGeometry x="110" y="160" width="20" height="300" as="geometry"/>
                </mxCell>
                <mxCell id="30" value="" style="edgeStyle=none;html=1;dashed=1;endArrow=none;" parent="1" source="5" target="29" edge="1">
                    <mxGeometry relative="1" as="geometry">
                        <mxPoint x="280" y="500" as="targetPoint"/>
                        <mxPoint x="280" y="140" as="sourcePoint"/>
                        <Array as="points"/>
                    </mxGeometry>
                </mxCell>
                <mxCell id="29" value="" style="rounded=1;whiteSpace=wrap;html=1;fillColor=#00D5FF;fontColor=#ffffff;strokeColor=#006EAF;perimeterSpacing=10;glass=0;" parent="1" vertex="1">
                    <mxGeometry x="270" y="170" width="20" height="280" as="geometry"/>
                </mxCell>
                <mxCell id="32" value="" style="rounded=1;whiteSpace=wrap;html=1;fillColor=#00D5FF;fontColor=#ffffff;strokeColor=#006EAF;perimeterSpacing=10;glass=0;" parent="1" vertex="1">
                    <mxGeometry x="590" y="310" width="20" height="60" as="geometry"/>
                </mxCell>
                <mxCell id="33" value="" style="edgeStyle=none;html=1;dashed=1;endArrow=none;" parent="1" source="7" target="31" edge="1">
                    <mxGeometry relative="1" as="geometry">
                        <mxPoint x="440" y="490" as="targetPoint"/>
                        <mxPoint x="440" y="140" as="sourcePoint"/>
                    </mxGeometry>
                </mxCell>
                <mxCell id="31" value="" style="rounded=1;whiteSpace=wrap;html=1;fillColor=#00D5FF;fontColor=#ffffff;strokeColor=#006EAF;perimeterSpacing=10;glass=0;arcSize=50;" parent="1" vertex="1">
                    <mxGeometry x="430" y="200" width="20" height="80" as="geometry"/>
                </mxCell>
                <mxCell id="49" value="" style="rounded=0;whiteSpace=wrap;html=1;glass=0;fillColor=#FFFFFF;gradientColor=none;" parent="1" vertex="1">
                    <mxGeometry x="80" y="580" width="690" height="630" as="geometry"/>
                </mxCell>
                <mxCell id="50" value="" style="rounded=1;whiteSpace=wrap;html=1;glass=0;fillColor=#FFFFFF;gradientColor=none;strokeColor=#5C5C5C;arcSize=3;" parent="1" vertex="1">
                    <mxGeometry x="170" y="600" width="500" height="470" as="geometry"/>
                </mxCell>
                <mxCell id="51" value="" style="endArrow=none;dashed=1;html=1;dashPattern=1 3;strokeWidth=2;entryX=0;entryY=0.08;entryDx=0;entryDy=0;entryPerimeter=0;exitX=1;exitY=0.08;exitDx=0;exitDy=0;exitPerimeter=0;strokeColor=#0D0D0D;" parent="1" source="50" target="50" edge="1">
                    <mxGeometry width="50" height="50" relative="1" as="geometry">
                        <mxPoint x="400" y="800" as="sourcePoint"/>
                        <mxPoint x="400" y="790" as="targetPoint"/>
                    </mxGeometry>
                </mxCell>
                <mxCell id="52" value="&lt;font size=&quot;1&quot; color=&quot;#000000&quot;&gt;&lt;b style=&quot;font-size: 14px;&quot;&gt;基于知识图谱增强神经网络的图像识别系统的架构图&lt;/b&gt;&lt;/font&gt;" style="text;html=1;strokeColor=none;fillColor=none;align=center;verticalAlign=middle;whiteSpace=wrap;rounded=0;glass=0;" parent="1" vertex="1">
                    <mxGeometry x="250" y="610" width="355" height="30" as="geometry"/>
                </mxCell>
                <mxCell id="53" value="" style="endArrow=none;dashed=1;html=1;dashPattern=1 3;strokeWidth=2;entryX=0;entryY=0.08;entryDx=0;entryDy=0;entryPerimeter=0;exitX=1;exitY=0.08;exitDx=0;exitDy=0;exitPerimeter=0;strokeColor=#0D0D0D;" parent="1" edge="1">
                    <mxGeometry width="50" height="50" relative="1" as="geometry">
                        <mxPoint x="670" y="720" as="sourcePoint"/>
                        <mxPoint x="170" y="720" as="targetPoint"/>
                    </mxGeometry>
                </mxCell>
                <mxCell id="54" value="&lt;font size=&quot;1&quot; color=&quot;#000000&quot;&gt;&lt;b style=&quot;font-size: 14px;&quot;&gt;表现层&lt;/b&gt;&lt;/font&gt;" style="text;html=1;strokeColor=none;fillColor=none;align=center;verticalAlign=middle;whiteSpace=wrap;rounded=0;glass=0;" parent="1" vertex="1">
                    <mxGeometry x="170" y="660" width="80" height="30" as="geometry"/>
                </mxCell>
                <mxCell id="55" value="&lt;font size=&quot;1&quot; color=&quot;#000000&quot;&gt;&lt;b style=&quot;font-size: 14px;&quot;&gt;展示层&lt;/b&gt;&lt;/font&gt;" style="text;html=1;strokeColor=none;fillColor=none;align=center;verticalAlign=middle;whiteSpace=wrap;rounded=0;glass=0;" parent="1" vertex="1">
                    <mxGeometry x="170" y="750" width="80" height="30" as="geometry"/>
                </mxCell>
                <mxCell id="56" value="&lt;b style=&quot;color: rgb(0, 0, 0); font-size: 14px;&quot;&gt;服务层&lt;/b&gt;" style="text;html=1;strokeColor=none;fillColor=none;align=center;verticalAlign=middle;whiteSpace=wrap;rounded=0;glass=0;" parent="1" vertex="1">
                    <mxGeometry x="170" y="870" width="80" height="30" as="geometry"/>
                </mxCell>
                <mxCell id="58" value="&lt;b style=&quot;color: rgb(0, 0, 0); font-size: 14px;&quot;&gt;数据层&lt;/b&gt;" style="text;html=1;strokeColor=none;fillColor=none;align=center;verticalAlign=middle;whiteSpace=wrap;rounded=0;glass=0;" parent="1" vertex="1">
                    <mxGeometry x="174" y="1005.6300000000001" width="80" height="30" as="geometry"/>
                </mxCell>
                <mxCell id="59" value="" style="rounded=1;whiteSpace=wrap;html=1;glass=0;strokeColor=#2D7600;fontSize=14;fontColor=#ffffff;fillColor=#9EE396;" parent="1" vertex="1">
                    <mxGeometry x="270" y="645" width="380" height="65" as="geometry"/>
                </mxCell>
                <mxCell id="60" value="Vue" style="rounded=1;whiteSpace=wrap;html=1;glass=0;strokeColor=#5C5C5C;fontSize=12;fontColor=#000000;fillColor=#FCFCFC;gradientColor=none;" parent="1" vertex="1">
                    <mxGeometry x="290" y="657.5" width="80" height="40" as="geometry"/>
                </mxCell>
                <mxCell id="61" value="Element UI" style="rounded=1;whiteSpace=wrap;html=1;glass=0;strokeColor=#5C5C5C;fontSize=12;fontColor=#000000;fillColor=#FCFCFC;gradientColor=none;" parent="1" vertex="1">
                    <mxGeometry x="420" y="657.5" width="80" height="40" as="geometry"/>
                </mxCell>
                <mxCell id="62" value="Echarts" style="rounded=1;whiteSpace=wrap;html=1;glass=0;strokeColor=#5C5C5C;fontSize=12;fontColor=#000000;fillColor=#FCFCFC;gradientColor=none;" parent="1" vertex="1">
                    <mxGeometry x="540" y="657.5" width="80" height="40" as="geometry"/>
                </mxCell>
                <mxCell id="63" value="" style="endArrow=none;dashed=1;html=1;dashPattern=1 3;strokeWidth=2;entryX=0;entryY=0.08;entryDx=0;entryDy=0;entryPerimeter=0;exitX=1;exitY=0.08;exitDx=0;exitDy=0;exitPerimeter=0;strokeColor=#0D0D0D;" parent="1" edge="1">
                    <mxGeometry width="50" height="50" relative="1" as="geometry">
                        <mxPoint x="670" y="810" as="sourcePoint"/>
                        <mxPoint x="170" y="810" as="targetPoint"/>
                    </mxGeometry>
                </mxCell>
                <mxCell id="64" value="&lt;font color=&quot;#000000&quot;&gt;&amp;nbsp; &amp;nbsp;AXIOS&lt;/font&gt;" style="rounded=1;whiteSpace=wrap;html=1;glass=0;strokeColor=#030505;fontSize=14;fontColor=#ffffff;fillColor=#B5FAFF;align=left;" parent="1" vertex="1">
                    <mxGeometry x="270" y="730" width="380" height="65" as="geometry"/>
                </mxCell>
                <mxCell id="65" value="GET请求" style="rounded=1;whiteSpace=wrap;html=1;glass=0;strokeColor=#5C5C5C;fontSize=12;fontColor=#000000;fillColor=#FCFCFC;gradientColor=none;" parent="1" vertex="1">
                    <mxGeometry x="350" y="740" width="110" height="40" as="geometry"/>
                </mxCell>
                <mxCell id="66" value="POST请求" style="rounded=1;whiteSpace=wrap;html=1;glass=0;strokeColor=#5C5C5C;fontSize=12;fontColor=#000000;fillColor=#FCFCFC;gradientColor=none;" parent="1" vertex="1">
                    <mxGeometry x="510" y="740" width="110" height="40" as="geometry"/>
                </mxCell>
                <mxCell id="67" value="&lt;font color=&quot;#000000&quot;&gt;&amp;nbsp; 业务层&lt;/font&gt;" style="rounded=1;whiteSpace=wrap;html=1;glass=0;strokeColor=#030505;fontSize=14;fontColor=#ffffff;fillColor=#F7ABD4;align=left;" parent="1" vertex="1">
                    <mxGeometry x="270" y="817.5" width="380" height="52.5" as="geometry"/>
                </mxCell>
                <mxCell id="68" value="" style="endArrow=none;dashed=1;html=1;dashPattern=1 3;strokeWidth=2;entryX=0;entryY=0.08;entryDx=0;entryDy=0;entryPerimeter=0;exitX=1;exitY=0.08;exitDx=0;exitDy=0;exitPerimeter=0;strokeColor=#0D0D0D;" parent="1" edge="1">
                    <mxGeometry width="50" height="50" relative="1" as="geometry">
                        <mxPoint x="670" y="980" as="sourcePoint"/>
                        <mxPoint x="170" y="980" as="targetPoint"/>
                    </mxGeometry>
                </mxCell>
                <mxCell id="69" value="&lt;font color=&quot;#000000&quot;&gt;&amp;nbsp; 用户层&lt;/font&gt;" style="rounded=1;whiteSpace=wrap;html=1;glass=0;strokeColor=#030505;fontSize=14;fontColor=#ffffff;fillColor=#FFDD99;align=left;" parent="1" vertex="1">
                    <mxGeometry x="270" y="882.5" width="380" height="87.5" as="geometry"/>
                </mxCell>
                <mxCell id="70" value="API接口" style="rounded=1;whiteSpace=wrap;html=1;glass=0;strokeColor=#5C5C5C;fontSize=12;fontColor=#000000;fillColor=#FCFCFC;gradientColor=none;" parent="1" vertex="1">
                    <mxGeometry x="380" y="830" width="80" height="30" as="geometry"/>
                </mxCell>
                <mxCell id="71" value="模型加载" style="rounded=1;whiteSpace=wrap;html=1;glass=0;strokeColor=#5C5C5C;fontSize=12;fontColor=#000000;fillColor=#FCFCFC;gradientColor=none;" parent="1" vertex="1">
                    <mxGeometry x="520" y="828.75" width="80" height="30" as="geometry"/>
                </mxCell>
                <mxCell id="73" value="注册登录模块" style="rounded=1;whiteSpace=wrap;html=1;glass=0;strokeColor=#5C5C5C;fontSize=12;fontColor=#000000;fillColor=#FCFCFC;gradientColor=none;" parent="1" vertex="1">
                    <mxGeometry x="350" y="890" width="90" height="30" as="geometry"/>
                </mxCell>
                <mxCell id="74" value="图像上传模块" style="rounded=1;whiteSpace=wrap;html=1;glass=0;strokeColor=#5C5C5C;fontSize=12;fontColor=#000000;fillColor=#FCFCFC;gradientColor=none;" parent="1" vertex="1">
                    <mxGeometry x="450" y="890" width="90" height="30" as="geometry"/>
                </mxCell>
                <mxCell id="76" value="神经网络模块" style="rounded=1;whiteSpace=wrap;html=1;glass=0;strokeColor=#5C5C5C;fontSize=12;fontColor=#000000;fillColor=#FCFCFC;gradientColor=none;" parent="1" vertex="1">
                    <mxGeometry x="550" y="890" width="90" height="30" as="geometry"/>
                </mxCell>
                <mxCell id="77" value="知识图谱模块" style="rounded=1;whiteSpace=wrap;html=1;glass=0;strokeColor=#5C5C5C;fontSize=12;fontColor=#000000;fillColor=#FCFCFC;gradientColor=none;" parent="1" vertex="1">
                    <mxGeometry x="350" y="930" width="90" height="30" as="geometry"/>
                </mxCell>
                <mxCell id="78" value="知识图谱可视&lt;span style=&quot;color: rgba(0, 0, 0, 0); font-family: monospace; font-size: 0px; text-align: start;&quot;&gt;%3CmxGraphModel%3E%3Croot%3E%3CmxCell%20id%3D%220%22%2F%3E%3CmxCell%20id%3D%221%22%20parent%3D%220%22%2F%3E%3CmxCell%20id%3D%222%22%20value%3D%22%E7%9F%A5%E8%AF%86%E5%9B%BE%E8%B0%B1%E6%A8%A1%E5%9D%97%22%20style%3D%22rounded%3D1%3BwhiteSpace%3Dwrap%3Bhtml%3D1%3Bglass%3D0%3BstrokeColor%3D%235C5C5C%3BfontSize%3D12%3BfontColor%3D%23000000%3BfillColor%3D%23FCFCFC%3BgradientColor%3Dnone%3B%22%20vertex%3D%221%22%20parent%3D%221%22%3E%3CmxGeometry%20x%3D%22350%22%20y%3D%22930%22%20width%3D%2290%22%20height%3D%2230%22%20as%3D%22geometry%22%2F%3E%3C%2FmxCell%3E%3C%2Froot%3E%3C%2FmxGraphModel%3E&lt;/span&gt;&lt;br&gt;化模块" style="rounded=1;whiteSpace=wrap;html=1;glass=0;strokeColor=#5C5C5C;fontSize=12;fontColor=#000000;fillColor=#FCFCFC;gradientColor=none;" parent="1" vertex="1">
                    <mxGeometry x="450" y="930" width="90" height="30" as="geometry"/>
                </mxCell>
                <mxCell id="79" value="结果输出模块" style="rounded=1;whiteSpace=wrap;html=1;glass=0;strokeColor=#5C5C5C;fontSize=12;fontColor=#000000;fillColor=#FCFCFC;gradientColor=none;" parent="1" vertex="1">
                    <mxGeometry x="550" y="930" width="90" height="30" as="geometry"/>
                </mxCell>
                <mxCell id="81" value="" style="rounded=1;whiteSpace=wrap;html=1;glass=0;strokeColor=#030505;fontSize=14;fontColor=#ffffff;fillColor=#E391DB;align=left;" parent="1" vertex="1">
                    <mxGeometry x="274" y="990" width="380" height="51.25" as="geometry"/>
                </mxCell>
                <mxCell id="82" value="" style="html=1;verticalLabelPosition=bottom;align=center;labelBackgroundColor=#ffffff;verticalAlign=top;strokeWidth=2;strokeColor=#030505;shadow=0;dashed=0;shape=mxgraph.ios7.icons.data;fontFamily=Helvetica;fontSize=12;fontColor=#000000;fillColor=#FFDD99;gradientColor=none;" parent="1" vertex="1">
                    <mxGeometry x="339" y="1000.3100000000002" width="30" height="30.63" as="geometry"/>
                </mxCell>
                <mxCell id="83" value="" style="html=1;verticalLabelPosition=bottom;align=center;labelBackgroundColor=#ffffff;verticalAlign=top;strokeWidth=2;strokeColor=#030505;shadow=0;dashed=0;shape=mxgraph.ios7.icons.data;fontFamily=Helvetica;fontSize=12;fontColor=#000000;fillColor=#FFDD99;gradientColor=none;" parent="1" vertex="1">
                    <mxGeometry x="504" y="1000.3100000000002" width="30" height="30.63" as="geometry"/>
                </mxCell>
                <mxCell id="84" value="neo4j" style="rounded=1;whiteSpace=wrap;html=1;glass=0;strokeColor=#5C5C5C;fontSize=12;fontColor=#000000;fillColor=#FCFCFC;gradientColor=none;" parent="1" vertex="1">
                    <mxGeometry x="373" y="1000.94" width="61" height="30" as="geometry"/>
                </mxCell>
                <mxCell id="85" value="Mysql" style="rounded=1;whiteSpace=wrap;html=1;glass=0;strokeColor=#5C5C5C;fontSize=12;fontColor=#000000;fillColor=#FCFCFC;gradientColor=none;" parent="1" vertex="1">
                    <mxGeometry x="538.5" y="1000.94" width="61" height="30" as="geometry"/>
                </mxCell>
                <mxCell id="91" style="edgeStyle=none;html=1;exitX=0.5;exitY=1;exitDx=0;exitDy=0;entryX=0.5;entryY=0;entryDx=0;entryDy=0;" parent="1" source="86" target="87" edge="1">
                    <mxGeometry relative="1" as="geometry"/>
                </mxCell>
                <mxCell id="86" value="数据收集与预处理" style="rounded=0;whiteSpace=wrap;html=1;" parent="1" vertex="1">
                    <mxGeometry x="350" y="1310" width="340" height="40" as="geometry"/>
                </mxCell>
                <mxCell id="92" style="edgeStyle=none;html=1;exitX=0.5;exitY=1;exitDx=0;exitDy=0;entryX=0.5;entryY=0;entryDx=0;entryDy=0;" parent="1" source="87" target="88" edge="1">
                    <mxGeometry relative="1" as="geometry">
                        <mxPoint x="520" y="1440" as="targetPoint"/>
                    </mxGeometry>
                </mxCell>
                <mxCell id="87" value="神经网络目标检测" style="rounded=0;whiteSpace=wrap;html=1;" parent="1" vertex="1">
                    <mxGeometry x="350" y="1380" width="340" height="40" as="geometry"/>
                </mxCell>
                <mxCell id="94" style="edgeStyle=none;html=1;exitX=0.5;exitY=1;exitDx=0;exitDy=0;entryX=0.5;entryY=0;entryDx=0;entryDy=0;" parent="1" source="88" target="89" edge="1">
                    <mxGeometry relative="1" as="geometry"/>
                </mxCell>
                <mxCell id="88" value="知识图谱分析" style="rounded=0;whiteSpace=wrap;html=1;" parent="1" vertex="1">
                    <mxGeometry x="350" y="1450" width="340" height="40" as="geometry"/>
                </mxCell>
                <mxCell id="95" style="edgeStyle=none;html=1;exitX=0.5;exitY=1;exitDx=0;exitDy=0;entryX=0.5;entryY=0;entryDx=0;entryDy=0;" parent="1" source="89" target="90" edge="1">
                    <mxGeometry relative="1" as="geometry"/>
                </mxCell>
                <mxCell id="89" value="多模态融合推理" style="rounded=0;whiteSpace=wrap;html=1;" parent="1" vertex="1">
                    <mxGeometry x="349" y="1520" width="340" height="40" as="geometry"/>
                </mxCell>
                <mxCell id="90" value="结果展示与报告生成" style="rounded=0;whiteSpace=wrap;html=1;" parent="1" vertex="1">
                    <mxGeometry x="349" y="1580" width="340" height="40" as="geometry"/>
                </mxCell>
                <mxCell id="96" value="Text" style="text;html=1;strokeColor=none;fillColor=none;align=center;verticalAlign=middle;whiteSpace=wrap;rounded=0;" vertex="1" parent="1">
                    <mxGeometry x="466" y="191" width="60" height="30" as="geometry"/>
                </mxCell>
                <mxCell id="97" value="图像识别时序图" style="text;html=1;align=center;verticalAlign=middle;resizable=0;points=[];autosize=1;strokeColor=none;fillColor=none;" vertex="1" parent="1">
                    <mxGeometry x="295" y="48" width="102" height="26" as="geometry"/>
                </mxCell>
                <mxCell id="99" value="&lt;font color=&quot;#fcfcfc&quot;&gt;流程图&lt;/font&gt;" style="text;html=1;align=center;verticalAlign=middle;resizable=0;points=[];autosize=1;strokeColor=none;fillColor=none;fontColor=#000000;" vertex="1" parent="1">
                    <mxGeometry x="489" y="1272" width="54" height="26" as="geometry"/>
                </mxCell>
                <mxCell id="101" value="" style="rounded=1;whiteSpace=wrap;html=1;fontColor=#FCFCFC;arcSize=3;fillColor=#FEFCFF;" vertex="1" parent="1">
                    <mxGeometry x="77" y="1711" width="713" height="438" as="geometry"/>
                </mxCell>
                <mxCell id="100" value="&lt;font color=&quot;#000000&quot;&gt;算法模型图&lt;/font&gt;" style="text;html=1;align=center;verticalAlign=middle;resizable=0;points=[];autosize=1;strokeColor=none;fillColor=none;fontColor=#FCFCFC;" vertex="1" parent="1">
                    <mxGeometry x="400" y="1713" width="78" height="26" as="geometry"/>
                </mxCell>
                <mxCell id="102" value="&lt;div style=&quot;&quot;&gt;&lt;br&gt;&lt;/div&gt;" style="rounded=1;whiteSpace=wrap;html=1;fontColor=#000000;fillColor=#FEFCFF;strokeColor=#000000;arcSize=2;dashed=1;align=left;" vertex="1" parent="1">
                    <mxGeometry x="98" y="1738" width="192" height="400" as="geometry"/>
                </mxCell>
                <mxCell id="103" value="&lt;b&gt;阶段一：数据处理&lt;/b&gt;" style="text;html=1;align=left;verticalAlign=middle;resizable=0;points=[];autosize=1;strokeColor=none;fillColor=none;fontColor=#000000;" vertex="1" parent="1">
                    <mxGeometry x="101" y="1741" width="114" height="26" as="geometry"/>
                </mxCell>
                <mxCell id="105" value="标准图像数据" style="rounded=0;whiteSpace=wrap;html=1;strokeColor=#000000;fontColor=#000000;fillColor=#2EE3F0;" vertex="1" parent="1">
                    <mxGeometry x="135" y="2055" width="120" height="60" as="geometry"/>
                </mxCell>
                <mxCell id="107" value="&lt;font color=&quot;#000000&quot;&gt;清洗&lt;/font&gt;" style="shape=singleArrow;direction=south;whiteSpace=wrap;html=1;strokeColor=#A50040;fontColor=#ffffff;fillColor=#d80073;arrowWidth=0.6228845635775906;arrowSize=0.3297301412171649;" vertex="1" parent="1">
                    <mxGeometry x="160.5" y="1856" width="67" height="59" as="geometry"/>
                </mxCell>
                <mxCell id="108" value="&lt;font color=&quot;#000000&quot;&gt;增强&lt;/font&gt;" style="shape=singleArrow;direction=south;whiteSpace=wrap;html=1;strokeColor=#A50040;fontColor=#ffffff;fillColor=#d80073;arrowWidth=0.6228845635775906;arrowSize=0.3297301412171649;" vertex="1" parent="1">
                    <mxGeometry x="160.5" y="1919" width="67" height="59" as="geometry"/>
                </mxCell>
                <mxCell id="109" value="&lt;font color=&quot;#000000&quot;&gt;归一化&lt;/font&gt;" style="shape=singleArrow;direction=south;whiteSpace=wrap;html=1;strokeColor=#A50040;fontColor=#ffffff;fillColor=#d80073;arrowWidth=0.6228845635775906;arrowSize=0.3297301412171649;" vertex="1" parent="1">
                    <mxGeometry x="160.5" y="1986" width="67" height="59" as="geometry"/>
                </mxCell>
                <mxCell id="111" value="原始图像数据" style="shape=parallelogram;perimeter=parallelogramPerimeter;whiteSpace=wrap;html=1;fixedSize=1;strokeColor=#000000;fontColor=#000000;fillColor=#2EE3F0;" vertex="1" parent="1">
                    <mxGeometry x="135" y="1789" width="120" height="60" as="geometry"/>
                </mxCell>
                <mxCell id="112" value="&lt;div style=&quot;&quot;&gt;&lt;br&gt;&lt;/div&gt;" style="rounded=1;whiteSpace=wrap;html=1;fontColor=#000000;fillColor=#FEFCFF;strokeColor=#000000;arcSize=2;dashed=1;align=left;" vertex="1" parent="1">
                    <mxGeometry x="309" y="1738" width="295" height="400" as="geometry"/>
                </mxCell>
                <mxCell id="113" value="&lt;b&gt;阶段二：特征提取&lt;/b&gt;" style="text;html=1;align=left;verticalAlign=middle;resizable=0;points=[];autosize=1;strokeColor=none;fillColor=none;fontColor=#000000;" vertex="1" parent="1">
                    <mxGeometry x="310" y="1741" width="114" height="26" as="geometry"/>
                </mxCell>
                <mxCell id="114" value="" style="rounded=1;whiteSpace=wrap;html=1;strokeColor=#000000;fontColor=#000000;fillColor=#FFFFFF;align=left;" vertex="1" parent="1">
                    <mxGeometry x="336" y="1982" width="250" height="136" as="geometry"/>
                </mxCell>
                <mxCell id="122" value="YOLOv8神经网络" style="text;html=1;align=left;verticalAlign=middle;resizable=0;points=[];autosize=1;strokeColor=none;fillColor=none;fontColor=#000000;" vertex="1" parent="1">
                    <mxGeometry x="410" y="2113" width="120" height="30" as="geometry"/>
                </mxCell>
                <mxCell id="123" value="输入" style="shape=singleArrow;whiteSpace=wrap;html=1;strokeColor=#000000;fontColor=#000000;fillColor=#2EE3F0;arrowWidth=0.6914764339868568;arrowSize=0.24281222485413145;" vertex="1" parent="1">
                    <mxGeometry x="264" y="2079" width="69" height="23" as="geometry"/>
                </mxCell>
                <mxCell id="124" value="&lt;div style=&quot;&quot;&gt;&lt;br&gt;&lt;/div&gt;" style="rounded=1;whiteSpace=wrap;html=1;fontColor=#000000;fillColor=#FEFCFF;strokeColor=#000000;arcSize=2;dashed=1;align=left;" vertex="1" parent="1">
                    <mxGeometry x="620" y="1738" width="127.5" height="400" as="geometry"/>
                </mxCell>
                <mxCell id="125" value="&lt;b&gt;阶段三：结果推理&lt;/b&gt;" style="text;html=1;align=left;verticalAlign=middle;resizable=0;points=[];autosize=1;strokeColor=none;fillColor=none;fontColor=#000000;" vertex="1" parent="1">
                    <mxGeometry x="620" y="1739" width="120" height="30" as="geometry"/>
                </mxCell>
                <mxCell id="127" value="知识图谱" style="text;html=1;align=center;verticalAlign=middle;resizable=0;points=[];autosize=1;strokeColor=none;fillColor=none;fontColor=#000000;" vertex="1" parent="1">
                    <mxGeometry x="339" y="1900" width="70" height="30" as="geometry"/>
                </mxCell>
                <mxCell id="128" value="" style="ellipse;whiteSpace=wrap;html=1;strokeColor=#000000;fontColor=#000000;fillColor=#8F8F8F;dashed=1;" vertex="1" parent="1">
                    <mxGeometry x="340" y="1779" width="250" height="121" as="geometry"/>
                </mxCell>
                <mxCell id="137" style="html=1;exitX=1;exitY=0.5;exitDx=0;exitDy=0;entryX=0;entryY=0.5;entryDx=0;entryDy=0;strokeColor=#292929;fontColor=#000000;endArrow=none;endFill=0;" edge="1" parent="1" source="129" target="133">
                    <mxGeometry relative="1" as="geometry"/>
                </mxCell>
                <mxCell id="129" value="" style="ellipse;whiteSpace=wrap;html=1;aspect=fixed;strokeColor=#000000;fontColor=#000000;fillColor=#FF0F27;" vertex="1" parent="1">
                    <mxGeometry x="403" y="1810" width="17" height="17" as="geometry"/>
                </mxCell>
                <mxCell id="150" style="edgeStyle=none;html=1;exitX=0.5;exitY=0;exitDx=0;exitDy=0;entryX=0.5;entryY=1;entryDx=0;entryDy=0;strokeColor=#292929;fontColor=#000000;endArrow=none;endFill=0;" edge="1" parent="1" source="130" target="144">
                    <mxGeometry relative="1" as="geometry"/>
                </mxCell>
                <mxCell id="151" style="edgeStyle=none;html=1;exitX=0;exitY=0.5;exitDx=0;exitDy=0;entryX=1;entryY=0.5;entryDx=0;entryDy=0;strokeColor=#292929;fontColor=#000000;endArrow=none;endFill=0;" edge="1" parent="1" source="130" target="145">
                    <mxGeometry relative="1" as="geometry"/>
                </mxCell>
                <mxCell id="130" value="" style="ellipse;whiteSpace=wrap;html=1;aspect=fixed;strokeColor=#000000;fontColor=#000000;fillColor=#FF0F27;" vertex="1" parent="1">
                    <mxGeometry x="550" y="1834.5" width="20" height="20" as="geometry"/>
                </mxCell>
                <mxCell id="156" style="edgeStyle=none;html=1;exitX=1;exitY=0.5;exitDx=0;exitDy=0;entryX=0;entryY=0.5;entryDx=0;entryDy=0;strokeColor=#292929;fontColor=#000000;endArrow=none;endFill=0;" edge="1" parent="1" source="131" target="143">
                    <mxGeometry relative="1" as="geometry"/>
                </mxCell>
                <mxCell id="131" value="" style="ellipse;whiteSpace=wrap;html=1;aspect=fixed;strokeColor=#000000;fontColor=#000000;fillColor=#FF0F27;" vertex="1" parent="1">
                    <mxGeometry x="466" y="1860" width="14" height="14" as="geometry"/>
                </mxCell>
                <mxCell id="139" style="edgeStyle=none;html=1;exitX=1;exitY=0;exitDx=0;exitDy=0;entryX=0;entryY=1;entryDx=0;entryDy=0;strokeColor=#292929;fontColor=#000000;endArrow=none;endFill=0;" edge="1" parent="1" source="132" target="129">
                    <mxGeometry relative="1" as="geometry"/>
                </mxCell>
                <mxCell id="132" value="" style="ellipse;whiteSpace=wrap;html=1;aspect=fixed;strokeColor=#000000;fontColor=#000000;fillColor=#4FFF0F;" vertex="1" parent="1">
                    <mxGeometry x="386" y="1834.5" width="10" height="10" as="geometry"/>
                </mxCell>
                <mxCell id="133" value="" style="ellipse;whiteSpace=wrap;html=1;aspect=fixed;strokeColor=#000000;fontColor=#000000;fillColor=#4FFF0F;" vertex="1" parent="1">
                    <mxGeometry x="435" y="1814" width="10" height="10" as="geometry"/>
                </mxCell>
                <mxCell id="158" style="edgeStyle=none;html=1;exitX=1;exitY=1;exitDx=0;exitDy=0;entryX=0.054;entryY=0.271;entryDx=0;entryDy=0;entryPerimeter=0;strokeColor=#292929;fontColor=#000000;endArrow=none;endFill=0;" edge="1" parent="1" source="140" target="129">
                    <mxGeometry relative="1" as="geometry"/>
                </mxCell>
                <mxCell id="140" value="" style="ellipse;whiteSpace=wrap;html=1;aspect=fixed;strokeColor=#000000;fontColor=#000000;fillColor=#4FFF0F;" vertex="1" parent="1">
                    <mxGeometry x="387" y="1800" width="10" height="10" as="geometry"/>
                </mxCell>
                <mxCell id="155" style="edgeStyle=none;html=1;exitX=1;exitY=1;exitDx=0;exitDy=0;strokeColor=#292929;fontColor=#000000;endArrow=none;endFill=0;" edge="1" parent="1" source="141" target="131">
                    <mxGeometry relative="1" as="geometry"/>
                </mxCell>
                <mxCell id="141" value="" style="ellipse;whiteSpace=wrap;html=1;aspect=fixed;strokeColor=#000000;fontColor=#000000;fillColor=#4FFF0F;" vertex="1" parent="1">
                    <mxGeometry x="456" y="1846" width="10" height="10" as="geometry"/>
                </mxCell>
                <mxCell id="154" style="edgeStyle=none;html=1;exitX=0.5;exitY=0;exitDx=0;exitDy=0;entryX=0.5;entryY=1;entryDx=0;entryDy=0;strokeColor=#292929;fontColor=#000000;endArrow=none;endFill=0;" edge="1" parent="1" source="142" target="131">
                    <mxGeometry relative="1" as="geometry"/>
                </mxCell>
                <mxCell id="142" value="" style="ellipse;whiteSpace=wrap;html=1;aspect=fixed;strokeColor=#000000;fontColor=#000000;fillColor=#4FFF0F;" vertex="1" parent="1">
                    <mxGeometry x="468" y="1880.5" width="10" height="10" as="geometry"/>
                </mxCell>
                <mxCell id="143" value="" style="ellipse;whiteSpace=wrap;html=1;aspect=fixed;strokeColor=#000000;fontColor=#000000;fillColor=#4FFF0F;" vertex="1" parent="1">
                    <mxGeometry x="494" y="1864" width="10" height="10" as="geometry"/>
                </mxCell>
                <mxCell id="144" value="" style="ellipse;whiteSpace=wrap;html=1;aspect=fixed;strokeColor=#000000;fontColor=#000000;fillColor=#4FFF0F;" vertex="1" parent="1">
                    <mxGeometry x="555" y="1810" width="10" height="10" as="geometry"/>
                </mxCell>
                <mxCell id="145" value="" style="ellipse;whiteSpace=wrap;html=1;aspect=fixed;strokeColor=#000000;fontColor=#000000;fillColor=#4FFF0F;" vertex="1" parent="1">
                    <mxGeometry x="530" y="1839.5" width="10" height="10" as="geometry"/>
                </mxCell>
                <mxCell id="152" style="edgeStyle=none;html=1;exitX=1;exitY=0;exitDx=0;exitDy=0;entryX=0;entryY=1;entryDx=0;entryDy=0;strokeColor=#292929;fontColor=#000000;endArrow=none;endFill=0;" edge="1" parent="1" source="146" target="130">
                    <mxGeometry relative="1" as="geometry"/>
                </mxCell>
                <mxCell id="146" value="" style="ellipse;whiteSpace=wrap;html=1;aspect=fixed;strokeColor=#000000;fontColor=#000000;fillColor=#4FFF0F;" vertex="1" parent="1">
                    <mxGeometry x="538.5" y="1860.5" width="10" height="10" as="geometry"/>
                </mxCell>
                <mxCell id="159" value="&lt;font style=&quot;font-size: 10px;&quot;&gt;预测&lt;b&gt;类别&lt;/b&gt;结果&lt;/font&gt;" style="shape=singleArrow;whiteSpace=wrap;html=1;strokeColor=#000000;fontColor=#000000;fillColor=#2EE3F0;arrowWidth=0.6914764339868568;arrowSize=0.24281222485413145;rotation=-90;" vertex="1" parent="1">
                    <mxGeometry x="423.5" y="1925" width="78.5" height="30" as="geometry"/>
                </mxCell>
                <mxCell id="161" value="输出结果" style="shape=singleArrow;whiteSpace=wrap;html=1;strokeColor=#000000;fontColor=#000000;fillColor=#2EE3F0;arrowWidth=0.6914764339868568;arrowSize=0.24281222485413145;" vertex="1" parent="1">
                    <mxGeometry x="590" y="2070" width="65" height="23" as="geometry"/>
                </mxCell>
                <mxCell id="170" style="edgeStyle=none;html=1;entryX=0.5;entryY=1;entryDx=0;entryDy=0;strokeColor=#292929;fontSize=10;fontColor=#000000;endArrow=classic;endFill=1;" edge="1" parent="1" source="162" target="165">
                    <mxGeometry relative="1" as="geometry"/>
                </mxCell>
                <mxCell id="162" value="神经网络预测结果" style="ellipse;whiteSpace=wrap;html=1;strokeColor=#000000;fontSize=10;fontColor=#000000;fillColor=#F598CC;" vertex="1" parent="1">
                    <mxGeometry x="660" y="2056.25" width="70" height="50.5" as="geometry"/>
                </mxCell>
                <mxCell id="169" style="edgeStyle=none;html=1;entryX=0.5;entryY=0;entryDx=0;entryDy=0;strokeColor=#292929;fontSize=10;fontColor=#000000;endArrow=classic;endFill=1;" edge="1" parent="1" source="163" target="165">
                    <mxGeometry relative="1" as="geometry"/>
                </mxCell>
                <mxCell id="163" value="知识图谱分析结果" style="ellipse;whiteSpace=wrap;html=1;strokeColor=#000000;fontSize=10;fontColor=#000000;fillColor=#F598CC;" vertex="1" parent="1">
                    <mxGeometry x="660" y="1817.25" width="69" height="44.5" as="geometry"/>
                </mxCell>
                <mxCell id="164" value="输出结果" style="shape=singleArrow;whiteSpace=wrap;html=1;strokeColor=#000000;fontColor=#000000;fillColor=#2EE3F0;arrowWidth=0.6914764339868568;arrowSize=0.24281222485413145;" vertex="1" parent="1">
                    <mxGeometry x="595.5" y="1828" width="54" height="23" as="geometry"/>
                </mxCell>
                <mxCell id="165" value="" style="shape=orEllipse;perimeter=ellipsePerimeter;whiteSpace=wrap;html=1;backgroundOutline=1;strokeColor=#000000;fontSize=10;fontColor=#000000;fillColor=#00CC00;" vertex="1" parent="1">
                    <mxGeometry x="682.5" y="1947.5" width="25" height="25" as="geometry"/>
                </mxCell>
                <mxCell id="166" value="融合" style="text;html=1;align=center;verticalAlign=middle;resizable=0;points=[];autosize=1;strokeColor=none;fillColor=none;fontColor=#000000;" vertex="1" parent="1">
                    <mxGeometry x="639" y="1945" width="50" height="30" as="geometry"/>
                </mxCell>
                <mxCell id="172" value="预测结果" style="shape=singleArrow;whiteSpace=wrap;html=1;strokeColor=#000000;fontColor=#000000;fillColor=#3DF011;arrowWidth=0.6914764339868568;arrowSize=0.24281222485413145;" vertex="1" parent="1">
                    <mxGeometry x="710" y="1949.5" width="60" height="23" as="geometry"/>
                </mxCell>
            </root>
        </mxGraphModel>
    </diagram>
</mxfile>